<svg width="130" height="56" fill="none" xmlns="http://www.w3.org/2000/svg"><path d="M18.976 44.256l-3.584 11.2h-4.048l-1.808-5.984-1.904 5.984H3.584L0 44.256h3.888l1.952 6.368 2.064-6.368h3.472l1.952 6.448 2.064-6.448h3.584zM25.515 55.712c-1.206 0-2.288-.25-3.248-.752a5.667 5.667 0 01-2.256-2.08c-.544-.896-.816-1.904-.816-3.024s.272-2.123.816-3.008a5.63 5.63 0 012.256-2.096c.96-.501 2.042-.752 3.248-.752 1.205 0 2.288.25 3.248.752a5.63 5.63 0 012.256 2.096c.544.885.816 1.888.816 3.008s-.272 2.128-.816 3.024a5.667 5.667 0 01-2.256 2.08c-.96.501-2.043.752-3.248.752zm0-3.056c.469 0 .89-.112 1.264-.336.384-.235.688-.56.912-.976.224-.427.336-.923.336-1.488s-.112-1.056-.336-1.472a2.377 2.377 0 00-.912-.976 2.325 2.325 0 00-1.264-.352c-.47 0-.896.117-1.28.352-.374.224-.672.55-.896.976-.224.416-.336.907-.336 1.472s.112 1.061.336 1.488c.224.416.522.741.896.976.384.224.81.336 1.28.336zM44.245 44.256v11.2h-3.104l-4.256-5.088v5.088h-3.68v-11.2h3.104l4.256 5.088v-5.088h3.68zM46.065 44.256h5.52c1.248 0 2.346.23 3.295.688.96.448 1.702 1.093 2.224 1.936.534.843.8 1.835.8 2.976s-.266 2.133-.8 2.976c-.522.843-1.264 1.493-2.224 1.952-.949.448-2.047.672-3.296.672h-5.52v-11.2zm5.36 8.256c.81 0 1.456-.23 1.936-.688.49-.47.736-1.125.736-1.968s-.246-1.493-.736-1.952c-.48-.47-1.126-.704-1.936-.704H49.84v5.312h1.584zM68.595 52.608v2.848h-9.312v-11.2h9.104v2.848h-5.392v1.312h4.736v2.72h-4.736v1.472h5.6zM74.849 52.64h-1.024v2.816h-3.776v-11.2h5.392c1.034 0 1.936.17 2.704.512.768.341 1.36.832 1.776 1.472.416.64.624 1.387.624 2.24 0 .8-.181 1.499-.544 2.096-.363.597-.886 1.072-1.568 1.424l2.352 3.456h-4.032l-1.904-2.816zm1.888-4.16c0-.416-.128-.736-.384-.96-.256-.235-.64-.352-1.152-.352h-1.376v2.624H75.2c.512 0 .896-.112 1.152-.336.256-.235.384-.56.384-.976zM81.97 44.256h3.777v8.272h5.056v2.928H81.97v-11.2z" fill="#fff"/><path d="M99.634 53.504h-4.256l-.752 1.952h-3.84l4.896-11.2h3.712l4.896 11.2h-3.904l-.752-1.952zm-1.04-2.72l-1.088-2.816-1.088 2.816h2.176zM115.933 44.256v11.2h-3.104l-4.256-5.088v5.088h-3.68v-11.2h3.104l4.256 5.088v-5.088h3.68zM117.752 44.256h5.52c1.248 0 2.347.23 3.296.688.96.448 1.701 1.093 2.224 1.936.533.843.8 1.835.8 2.976s-.267 2.133-.8 2.976c-.523.843-1.264 1.493-2.224 1.952-.949.448-2.048.672-3.296.672h-5.52v-11.2zm5.36 8.256c.811 0 1.456-.23 1.936-.688.491-.47.736-1.125.736-1.968s-.245-1.493-.736-1.952c-.48-.47-1.125-.704-1.936-.704h-1.584v5.312h1.584z" fill="#fff"/><path fill-rule="evenodd" clip-rule="evenodd" d="M48 3.96h23.28v1.2H49.2v14.2H48V3.96zm31.2 31.2v-10.2h1.2v11.4H55.88v-1.2H79.2zm-30 0v-9.4H48v10.6h3.24v-1.2H49.2z" fill="#fff"/><path fill-rule="evenodd" clip-rule="evenodd" d="M77.01 9.964c.056.211-.351.566-.878 1.024-.995.864-2.412 2.096-1.931 3.427-1.11.629-2.62 3.226-1.929 4.615l-.931.493c-.021-.006-1.444-.425-2-.72-.134-.07-.367-.162-.645-.272-.887-.35-2.235-.882-2.296-1.49-.073-.73 1.417-5.017 1.68-5.768.072-.155.156-.309.24-.463.195-.358.39-.716.434-1.079.024-.194-.026-.347-.239-.204-.075.058-.12.212-.161.352-.046.157-.086.295-.157.26-.05-.025 0-.207.063-.446.124-.461.304-1.132-.063-1.266-.266-.097-.678.04-.837.896-.12.646-.12.908-.12 1.38v.05c-.322.593-2.48 4.621-2.48 6.287 0 1.202.315 1.484 1.388 2.446.248.223.538.482.873.797l-2.875 3.961c-.77.23-2.598-.406-4.44-1.047-2.133-.742-4.286-1.491-4.845-.914-.286.295-.097.81.094 1.329.085.231.17.464.214.679l-4.669-.844c-.313-.07-.45-.54-.477-.853.082-.476.283-1.828.237-2.067-.032-.17-.108-.237-.354-.367l-1.866 3.779c.436.353 1.02.497 1.58.548.526.147 2.797.786 4.977 1.466-.472 1.448-.125 3.021.2 4.292l-2.864 7.307c-.129.294-.618.337-.93.303-.45-.173-1.738-.631-1.982-.633-.173-.001-.253.06-.428.276l3.346 2.563c.43-.36.685-.904.843-1.445.302-.596 1.835-3.621 3.134-5.92.684.419 1.629.373 2.265.067.492-.236 1.215-.246 2.059-.258 1.217-.016 2.686-.036 4.08-.745.922-.469 2.78-2.3 3.154-3.225 1.885-1.383 3.083-2.14 4.868-3.064.348.362.69.736 1.014 1.091.653.715 1.234 1.351 1.657 1.655 1.105.794 2.042.356 2.783-.441.401-.432.698-1.537 1.012-2.7.142-.53.288-1.072.449-1.569h.001c.202-.479.32-.82.463-1.49.178-.835-.15-1.12-.433-1.136-.391-.022-.48.654-.542 1.12-.031.24-.055.425-.11.428-.08.004-.064-.137-.047-.296.016-.143.033-.3-.015-.381-.142-.213-.247-.094-.299.09-.097.346-.053.746-.01 1.146.016.137.03.274.04.41-.14.387-1.273 3.419-2.172 3.419-.96 0-2.213-3.22-2.213-3.22h-.001l-1.155-2.483.005-.006c.07-.093.158-.233.264-.4.099-.159.214-.34.344-.532.843.4 1.878.108 2.856-.922 3.57 2.057 4.624-.7 5.287-2.694.68-.672.3-2.095-.02-3.297-.252-.942-.467-1.748-.104-1.945.846-.46.677-.816.434-1.331-.144-.305-.314-.666-.316-1.136-.002-.569.1-.895.19-1.19.113-.36.21-.672.084-1.322-.112-.581-.568-.82-1.072-1.082-.52-.27-1.09-.569-1.39-1.298-2.703-6.567-7.569-1.908-7.119-.145.224.875.785 1.488 1.645 2.426l.2.22c.289.315.35.766.404 1.17.042.317.081.605.222.777.505.62 1.103.843 1.57 1.018.39.146.689.258.763.539z" fill="#fff"/></svg>